<mxfile host="app.diagrams.net" agent="Mozilla/5.0 (Macintosh; Intel Mac OS X 10_15_7) AppleWebKit/537.36 (KHTML, like Gecko) Chrome/138.0.0.0 Safari/537.36" version="28.0.4">
  <diagram name="Page-1" id="iA-MPZZufN237MOkfEqP">
    <mxGraphModel dx="1018" dy="655" grid="1" gridSize="10" guides="1" tooltips="1" connect="1" arrows="1" fold="1" page="1" pageScale="1" pageWidth="827" pageHeight="1169" background="#ffffff" math="0" shadow="1">
      <root>
        <mxCell id="0" />
        <mxCell id="1" parent="0" />
        <mxCell id="2" value="" style="whiteSpace=wrap;strokeWidth=2;labelBackgroundColor=none;fillColor=#FAE5C7;strokeColor=#0F8B8D;fontColor=#143642;" parent="1" vertex="1">
          <mxGeometry x="141" y="488" width="635" height="422" as="geometry" />
        </mxCell>
        <mxCell id="3" value="Microservices" style="whiteSpace=wrap;strokeWidth=2;labelBackgroundColor=none;fillColor=#FAE5C7;strokeColor=#0F8B8D;fontColor=#143642;" parent="1" vertex="1">
          <mxGeometry x="17" y="311" width="644" height="104" as="geometry" />
        </mxCell>
        <mxCell id="4" value="Rule Engine" style="whiteSpace=wrap;strokeWidth=2;labelBackgroundColor=none;fillColor=#FAE5C7;strokeColor=#0F8B8D;fontColor=#143642;" parent="1" vertex="1">
          <mxGeometry x="8" y="135" width="355" height="104" as="geometry" />
        </mxCell>
        <mxCell id="5" value="Admin UI" style="whiteSpace=wrap;strokeWidth=2;labelBackgroundColor=none;fillColor=#FAE5C7;strokeColor=#0F8B8D;fontColor=#143642;" parent="1" vertex="1">
          <mxGeometry x="394" y="8" width="125" height="54" as="geometry" />
        </mxCell>
        <mxCell id="6" value="Apache Drools Rule Engine" style="whiteSpace=wrap;strokeWidth=2;labelBackgroundColor=none;fillColor=#FAE5C7;strokeColor=#0F8B8D;fontColor=#143642;" parent="1" vertex="1">
          <mxGeometry x="53" y="160" width="249" height="54" as="geometry" />
        </mxCell>
        <mxCell id="7" value="Aggregation Microservice" style="whiteSpace=wrap;strokeWidth=2;labelBackgroundColor=none;fillColor=#FAE5C7;strokeColor=#0F8B8D;fontColor=#143642;" parent="1" vertex="1">
          <mxGeometry x="209" y="336" width="225" height="54" as="geometry" />
        </mxCell>
        <mxCell id="8" value="Invoice Extraction System" style="whiteSpace=wrap;strokeWidth=2;labelBackgroundColor=none;fillColor=#FAE5C7;strokeColor=#0F8B8D;fontColor=#143642;" parent="1" vertex="1">
          <mxGeometry x="291" y="513" width="260" height="78" as="geometry" />
        </mxCell>
        <mxCell id="9" value="Snippet Generation System" style="whiteSpace=wrap;strokeWidth=2;labelBackgroundColor=none;fillColor=#FAE5C7;strokeColor=#0F8B8D;fontColor=#143642;" parent="1" vertex="1">
          <mxGeometry x="330.5" y="680" width="181" height="100" as="geometry" />
        </mxCell>
        <mxCell id="10" value="Sends Requests" style="curved=1;startArrow=none;endArrow=block;exitX=0;exitY=0.76;entryX=0.5;entryY=-0.01;labelBackgroundColor=none;strokeColor=#A8201A;fontColor=default;" parent="1" source="5" target="6" edge="1">
          <mxGeometry relative="1" as="geometry">
            <Array as="points">
              <mxPoint x="178" y="98" />
            </Array>
          </mxGeometry>
        </mxCell>
        <mxCell id="11" value="Evaluates Rules" style="curved=1;startArrow=none;endArrow=block;exitX=0.36;exitY=0.99;entryX=0.01;entryY=0;labelBackgroundColor=none;strokeColor=#A8201A;fontColor=default;" parent="1" source="6" target="7" edge="1">
          <mxGeometry relative="1" as="geometry">
            <Array as="points">
              <mxPoint x="108" y="239" />
              <mxPoint x="108" y="311" />
            </Array>
          </mxGeometry>
        </mxCell>
        <mxCell id="12" value="Validates Data" style="curved=1;startArrow=none;endArrow=block;exitX=0.3;exitY=1;entryX=0.06;entryY=-0.01;labelBackgroundColor=none;strokeColor=#A8201A;fontColor=default;" parent="1" source="7" target="8" edge="1">
          <mxGeometry relative="1" as="geometry">
            <Array as="points">
              <mxPoint x="233" y="415" />
              <mxPoint x="233" y="488" />
            </Array>
          </mxGeometry>
        </mxCell>
        <mxCell id="13" value="Triggers Workflows" style="curved=1;startArrow=none;endArrow=block;exitX=0.5;exitY=0.99;entryX=0.5;entryY=0;labelBackgroundColor=none;strokeColor=#A8201A;fontColor=default;" parent="1" source="8" target="9" edge="1">
          <mxGeometry relative="1" as="geometry">
            <Array as="points" />
          </mxGeometry>
        </mxCell>
        <mxCell id="14" value="Fetches Results" style="curved=1;startArrow=none;endArrow=block;exitX=0.44;exitY=1;entryX=0.3;entryY=0;labelBackgroundColor=none;strokeColor=#A8201A;fontColor=default;" parent="1" source="5" target="7" edge="1">
          <mxGeometry relative="1" as="geometry">
            <Array as="points">
              <mxPoint x="441" y="98" />
              <mxPoint x="441" y="239" />
              <mxPoint x="236" y="275" />
              <mxPoint x="236" y="311" />
            </Array>
          </mxGeometry>
        </mxCell>
        <mxCell id="15" value="Returns Validation Results" style="curved=1;startArrow=none;endArrow=block;exitX=1;exitY=0.16;entryX=0.99;entryY=0.89;labelBackgroundColor=none;strokeColor=#A8201A;fontColor=default;" parent="1" source="7" target="5" edge="1">
          <mxGeometry relative="1" as="geometry">
            <Array as="points">
              <mxPoint x="641" y="311" />
              <mxPoint x="641" y="98" />
            </Array>
          </mxGeometry>
        </mxCell>
        <mxCell id="16" value="Sends Validation Requests" style="curved=1;startArrow=none;endArrow=block;exitX=0.7;exitY=0.99;entryX=0.57;entryY=0;labelBackgroundColor=none;strokeColor=#A8201A;fontColor=default;" parent="1" source="6" target="7" edge="1">
          <mxGeometry relative="1" as="geometry">
            <Array as="points">
              <mxPoint x="274" y="239" />
              <mxPoint x="350" y="275" />
              <mxPoint x="350" y="311" />
            </Array>
          </mxGeometry>
        </mxCell>
        <mxCell id="17" value="Workflow Notifications" style="curved=1;startArrow=none;endArrow=block;exitX=0.97;exitY=1;entryX=0.75;entryY=-0.01;labelBackgroundColor=none;strokeColor=#A8201A;fontColor=default;" parent="1" source="7" target="8" edge="1">
          <mxGeometry relative="1" as="geometry">
            <Array as="points">
              <mxPoint x="526" y="415" />
              <mxPoint x="526" y="488" />
            </Array>
          </mxGeometry>
        </mxCell>
        <mxCell id="18" value="Updates UI" style="curved=1;startArrow=none;endArrow=block;exitX=1;exitY=0.17;entryX=0.99;entryY=0.74;labelBackgroundColor=none;strokeColor=#A8201A;fontColor=default;" parent="1" source="8" target="5" edge="1">
          <mxGeometry relative="1" as="geometry">
            <Array as="points">
              <mxPoint x="755" y="488" />
              <mxPoint x="755" y="98" />
            </Array>
          </mxGeometry>
        </mxCell>
        <mxCell id="22lPZrHFp1BQaL37iid0-18" value="Fuzzy Matching System" style="whiteSpace=wrap;strokeWidth=2;labelBackgroundColor=none;fillColor=#FAE5C7;strokeColor=#0F8B8D;fontColor=#143642;" vertex="1" parent="1">
          <mxGeometry x="330.5" y="820" width="181" height="54" as="geometry" />
        </mxCell>
        <mxCell id="22lPZrHFp1BQaL37iid0-19" value="Triggers Workflows" style="curved=1;startArrow=none;endArrow=block;entryX=0.5;entryY=0;labelBackgroundColor=none;strokeColor=#A8201A;fontColor=default;exitX=0.5;exitY=1;exitDx=0;exitDy=0;" edge="1" parent="1" source="9">
          <mxGeometry relative="1" as="geometry">
            <Array as="points" />
            <mxPoint x="421" y="790" as="sourcePoint" />
            <mxPoint x="420.5" y="829" as="targetPoint" />
          </mxGeometry>
        </mxCell>
      </root>
    </mxGraphModel>
  </diagram>
</mxfile>
